HIERARCHY
ROOT Hips
{
	OFFSET 0.000000 83.214638 0.000000
	CHANNELS 6 Xposition Yposition Zposition Xrotation Yrotation Zrotation
	JOINT Pelvis
	{
		OFFSET 0.000000 0.000000 0.000000
		CHANNELS 3 Xrotation Yrotation Zrotation
		JOINT LeftUpLeg
		{
			OFFSET 8.479700 -4.795502 -0.379100
			CHANNELS 3 Xrotation Yrotation Zrotation
			JOINT LeftLeg
			{
				OFFSET 0.024144 -32.555107 0.112900
				CHANNELS 3 Xrotation Yrotation Zrotation
				JOINT LeftFoot
				{
					OFFSET -0.024144 -32.638630 -3.012600
					CHANNELS 3 Xrotation Yrotation Zrotation
					JOINT LeftToeBase
					{
						OFFSET 0.970200 -13.225400 11.864200
						CHANNELS 3 Xrotation Yrotation Zrotation
						End Site
						{
							OFFSET 0.000000 12.319262 0.000000
						}
					}
					JOINT LFootTongue
					{
						OFFSET 1.142400 -1.059800 6.665200
						CHANNELS 3 Xrotation Yrotation Zrotation
						End Site
						{
							OFFSET 0.000000 12.319262 0.000000
						}
					}
				}
				JOINT LeftPantLeg
				{
					OFFSET 0.918482 -16.533964 -2.284700
					CHANNELS 3 Xrotation Yrotation Zrotation
					End Site
					{
						OFFSET 0.350399 24.744368 0.000000
					}
				}
			}
		}
		JOINT RightUpLeg
		{
			OFFSET -8.479700 -4.795502 -0.379100
			CHANNELS 3 Xrotation Yrotation Zrotation
			JOINT RightLeg
			{
				OFFSET -0.023144 -32.555092 0.112900
				CHANNELS 3 Xrotation Yrotation Zrotation
				JOINT RightFoot
				{
					OFFSET 0.023144 -32.638641 -3.012700
					CHANNELS 3 Xrotation Yrotation Zrotation
					JOINT RightToeBase
					{
						OFFSET -0.970200 -13.225400 11.864200
						CHANNELS 3 Xrotation Yrotation Zrotation
						End Site
						{
							OFFSET 0.000000 12.319244 0.000000
						}
					}
					JOINT RFootTongue
					{
						OFFSET -1.142200 -1.059800 6.665200
						CHANNELS 3 Xrotation Yrotation Zrotation
						End Site
						{
							OFFSET 0.000000 12.319243 0.000000
						}
					}
				}
				JOINT RightPantLeg
				{
					OFFSET -0.919482 -16.533978 -2.284800
					CHANNELS 3 Xrotation Yrotation Zrotation
					End Site
					{
						OFFSET -0.350400 24.744419 0.000000
					}
				}
			}
		}
	}
	JOINT Spine
	{
		OFFSET 0.000000 7.722000 1.166200
		CHANNELS 3 Xrotation Yrotation Zrotation
		JOINT Spine1
		{
			OFFSET 0.000000 12.024101 0.248800
			CHANNELS 3 Xrotation Yrotation Zrotation
			JOINT Spine2
			{
				OFFSET 0.000000 11.502998 -0.491200
				CHANNELS 3 Xrotation Yrotation Zrotation
				JOINT Neck
				{
					OFFSET 0.000000 18.430702 -3.123100
					CHANNELS 3 Xrotation Yrotation Zrotation
					JOINT Head
					{
						OFFSET 0.000000 9.051102 1.034000
						CHANNELS 3 Xrotation Yrotation Zrotation
						JOINT HairB
						{
							OFFSET 0.208400 24.786102 24.822300
							CHANNELS 3 Xrotation Yrotation Zrotation
							End Site
							{
								OFFSET 0.000000 32.263779 0.000000
							}
						}
						JOINT HairA
						{
							OFFSET -7.081100 24.428299 23.196600
							CHANNELS 3 Xrotation Yrotation Zrotation
							End Site
							{
								OFFSET 0.000000 32.263779 0.000000
							}
						}
						JOINT Hat
						{
							OFFSET 16.728800 15.048294 -15.439601
							CHANNELS 3 Xrotation Yrotation Zrotation
							End Site
							{
								OFFSET 0.000000 32.263779 0.000000
							}
						}
					}
				}
				JOINT LeftShoulder
				{
					OFFSET 6.197800 13.665199 -4.064700
					CHANNELS 3 Xrotation Yrotation Zrotation
					JOINT LeftArm
					{
						OFFSET 7.778100 -0.187103 -1.709300
						CHANNELS 3 Xrotation Yrotation Zrotation
						JOINT LeftForeArm
						{
							OFFSET 22.049376 0.000000 0.000000
							CHANNELS 3 Xrotation Yrotation Zrotation
							JOINT LeftHand
							{
								OFFSET 23.009392 0.000000 0.000000
								CHANNELS 3 Xrotation Yrotation Zrotation
								JOINT LeftHandThumb1
								{
									OFFSET 3.507191 -2.063065 3.133727
									CHANNELS 3 Xrotation Yrotation Zrotation
									JOINT LeftHandThumb2
									{
										OFFSET 3.101337 -1.790558 1.790558
										CHANNELS 3 Xrotation Yrotation Zrotation
										JOINT LeftHandThumb3
										{
											OFFSET 3.058640 -1.765907 1.765906
											CHANNELS 3 Xrotation Yrotation Zrotation
											End Site
											{
												OFFSET -0.415260 3.926476 -0.049563
											}
										}
									}
								}
								JOINT LeftHandIndex1
								{
									OFFSET 11.334419 -0.901459 3.706815
									CHANNELS 3 Xrotation Yrotation Zrotation
									JOINT LeftHandIndex2
									{
										OFFSET 3.283112 0.000000 0.000000
										CHANNELS 3 Xrotation Yrotation Zrotation
										JOINT LeftHandIndex3
										{
											OFFSET 3.323853 0.000000 0.000000
											CHANNELS 3 Xrotation Yrotation Zrotation
											End Site
											{
												OFFSET -1.135597 3.097809 0.402452
											}
										}
									}
								}
								JOINT LeftHandMiddle1
								{
									OFFSET 11.335861 0.000000 0.000000
									CHANNELS 3 Xrotation Yrotation Zrotation
									JOINT LeftHandMiddle2
									{
										OFFSET 3.410492 0.000000 0.000000
										CHANNELS 3 Xrotation Yrotation Zrotation
										JOINT LeftHandMiddle3
										{
											OFFSET 3.312172 0.000000 0.000000
											CHANNELS 3 Xrotation Yrotation Zrotation
											End Site
											{
												OFFSET -1.150200 3.080154 0.400270
											}
										}
									}
								}
								JOINT LeftHandRing1
								{
									OFFSET 11.514786 -0.013176 -3.003090
									CHANNELS 3 Xrotation Yrotation Zrotation
									JOINT LeftHandRing2
									{
										OFFSET 3.053307 0.000000 0.000000
										CHANNELS 3 Xrotation Yrotation Zrotation
										JOINT LeftHandRing3
										{
											OFFSET 3.295807 0.000000 0.000000
											CHANNELS 3 Xrotation Yrotation Zrotation
											End Site
											{
												OFFSET -1.281006 3.013344 0.375733
											}
										}
									}
								}
								JOINT LeftHandPinky1
								{
									OFFSET 10.518692 -0.960396 -5.730441
									CHANNELS 3 Xrotation Yrotation Zrotation
									JOINT LeftHandPinky2
									{
										OFFSET 2.861649 0.000000 0.000000
										CHANNELS 3 Xrotation Yrotation Zrotation
										JOINT LeftHandPinky3
										{
											OFFSET 2.863380 0.000000 0.000000
											CHANNELS 3 Xrotation Yrotation Zrotation
											End Site
											{
												OFFSET -0.843597 2.711159 0.369971
											}
										}
									}
								}
							}
							JOINT LSleeve
							{
								OFFSET 6.676277 -0.344902 -1.011730
								CHANNELS 3 Xrotation Yrotation Zrotation
								End Site
								{
									OFFSET 0.000000 14.885353 0.000000
								}
							}
						}
					}
				}
				JOINT RightShoulder
				{
					OFFSET -6.197800 13.665199 -4.064700
					CHANNELS 3 Xrotation Yrotation Zrotation
					JOINT RightArm
					{
						OFFSET -7.778100 -0.187103 -1.709300
						CHANNELS 3 Xrotation Yrotation Zrotation
						JOINT RightForeArm
						{
							OFFSET -22.049376 0.000000 0.000000
							CHANNELS 3 Xrotation Yrotation Zrotation
							JOINT RightHand
							{
								OFFSET -23.009392 0.000000 0.000000
								CHANNELS 3 Xrotation Yrotation Zrotation
								JOINT RightHandThumb1
								{
									OFFSET -3.507191 -2.063065 3.133727
									CHANNELS 3 Xrotation Yrotation Zrotation
									JOINT RightHandThumb2
									{
										OFFSET -3.101337 -1.790558 1.790558
										CHANNELS 3 Xrotation Yrotation Zrotation
										JOINT RightHandThumb3
										{
											OFFSET -3.058640 -1.765907 1.765906
											CHANNELS 3 Xrotation Yrotation Zrotation
											End Site
											{
												OFFSET 0.415260 3.926476 -0.049563
											}
										}
									}
								}
								JOINT RightHandIndex1
								{
									OFFSET -11.334419 -0.901459 3.706815
									CHANNELS 3 Xrotation Yrotation Zrotation
									JOINT RightHandIndex2
									{
										OFFSET -3.283112 0.000000 0.000000
										CHANNELS 3 Xrotation Yrotation Zrotation
										JOINT RightHandIndex3
										{
											OFFSET -3.323853 0.000000 0.000000
											CHANNELS 3 Xrotation Yrotation Zrotation
											End Site
											{
												OFFSET 1.135597 3.097809 0.402452
											}
										}
									}
								}
								JOINT RightHandMiddle1
								{
									OFFSET -11.335861 0.000000 0.000000
									CHANNELS 3 Xrotation Yrotation Zrotation
									JOINT RightHandMiddle2
									{
										OFFSET -3.410492 0.000000 0.000000
										CHANNELS 3 Xrotation Yrotation Zrotation
										JOINT RightHandMiddle3
										{
											OFFSET -3.312172 0.000000 0.000000
											CHANNELS 3 Xrotation Yrotation Zrotation
											End Site
											{
												OFFSET 1.150200 3.080154 0.400270
											}
										}
									}
								}
								JOINT RightHandRing1
								{
									OFFSET -11.514786 -0.013176 -3.003090
									CHANNELS 3 Xrotation Yrotation Zrotation
									JOINT RightHandRing2
									{
										OFFSET -3.053307 0.000000 0.000000
										CHANNELS 3 Xrotation Yrotation Zrotation
										JOINT RightHandRing3
										{
											OFFSET -3.295807 0.000000 0.000000
											CHANNELS 3 Xrotation Yrotation Zrotation
											End Site
											{
												OFFSET 1.281006 3.013344 0.375733
											}
										}
									}
								}
								JOINT RightHandPinky1
								{
									OFFSET -10.518692 -0.960396 -5.730441
									CHANNELS 3 Xrotation Yrotation Zrotation
									JOINT RightHandPinky2
									{
										OFFSET -2.861649 0.000000 0.000000
										CHANNELS 3 Xrotation Yrotation Zrotation
										JOINT RightHandPinky3
										{
											OFFSET -2.863380 0.000000 0.000000
											CHANNELS 3 Xrotation Yrotation Zrotation
											End Site
											{
												OFFSET 0.843597 2.711159 0.369971
											}
										}
									}
								}
							}
							JOINT RSleeve
							{
								OFFSET -6.676277 -0.344902 -1.011730
								CHANNELS 3 Xrotation Yrotation Zrotation
								End Site
								{
									OFFSET 0.000000 14.885353 0.000000
								}
							}
						}
					}
				}
				JOINT Backpack
				{
					OFFSET 0.000000 -2.471497 36.677502
					CHANNELS 3 Xrotation Yrotation Zrotation
					End Site
					{
						OFFSET 0.000000 20.427315 0.000000
					}
				}
				JOINT Hood
				{
					OFFSET 0.000000 18.754097 -10.431000
					CHANNELS 3 Xrotation Yrotation Zrotation
					JOINT Hood1
					{
						OFFSET 0.000000 -5.011002 -7.685901
						CHANNELS 3 Xrotation Yrotation Zrotation
						End Site
						{
							OFFSET 0.000000 9.175140 0.000000
						}
					}
				}
				JOINT LHoodieString
				{
					OFFSET 5.250500 16.397697 3.089900
					CHANNELS 3 Xrotation Yrotation Zrotation
					JOINT LHoodieString1
					{
						OFFSET 0.257700 -6.364304 3.694600
						CHANNELS 3 Xrotation Yrotation Zrotation
						JOINT LHoodieString2
						{
							OFFSET 0.000000 -9.643799 2.679100
							CHANNELS 3 Xrotation Yrotation Zrotation
							End Site
							{
								OFFSET 0.000000 10.009018 0.000000
							}
						}
					}
				}
				JOINT RHoodieString
				{
					OFFSET -5.250500 16.397697 3.089900
					CHANNELS 3 Xrotation Yrotation Zrotation
					JOINT RHoodieString1
					{
						OFFSET -0.257700 -6.364304 3.694600
						CHANNELS 3 Xrotation Yrotation Zrotation
						JOINT RHoodieString2
						{
							OFFSET 0.000000 -9.643799 2.679100
							CHANNELS 3 Xrotation Yrotation Zrotation
							End Site
							{
								OFFSET 0.000000 10.009018 0.000000
							}
						}
					}
				}
			}
			JOINT LBackpack_Strap
			{
				OFFSET 15.223200 -7.719803 -6.610900
				CHANNELS 3 Xrotation Yrotation Zrotation
				End Site
				{
					OFFSET 0.000000 16.040596 0.000000
				}
			}
			JOINT RBackpack_Strap
			{
				OFFSET -15.223000 -7.719803 -6.610900
				CHANNELS 3 Xrotation Yrotation Zrotation
				End Site
				{
					OFFSET 0.000000 16.040596 0.000000
				}
			}
		}
	}
	JOINT BoyFacialAnim_Joint
	{
		OFFSET 1.000000 -82.208099 -1.550900
		CHANNELS 3 Xrotation Yrotation Zrotation
		End Site
		{
			OFFSET 0.000000 30.012791 0.000000
		}
	}
}
MOTION
Frames: 4
Frame Time: 0.016667
-0.269650 70.610130 0.112753 -5.289866 -45.102393 0.009350 -0.000000 -0.000003 -0.000000 -32.843456 7.601274 17.499486 59.220397 -6.566103 4.270685 -23.771695 -8.053142 -14.613729 0.000000 0.000002 -0.000000 0.000000 0.000002 0.000000 -0.000001 -0.000001 0.000002 -25.065015 -10.545383 -28.270506 58.419865 -9.124009 -7.671184 -25.367446 -6.319627 22.025827 -0.000000 0.000000 0.000000 -0.000000 0.000000 0.000000 -0.000002 0.000001 -0.000000 9.464569 7.182592 -1.715500 2.187716 0.989896 -0.915631 2.202830 0.982773 -0.894152 0.084655 13.220548 4.538681 8.920920 20.138135 -4.130237 0.000001 0.000000 0.000000 0.000001 0.000000 0.000000 0.000001 0.000000 0.000000 1.117180 3.546352 -8.633310 -53.487010 4.935502 -51.503000 0.000314 -106.358046 0.000323 1.988603 -7.706142 -15.869251 -6.141205 -11.690802 -6.761670 9.914154 42.595505 3.409828 0.000005 0.000000 -0.000001 0.255322 3.378237 -45.814327 5.654091 5.847767 -88.067455 -0.000000 -0.000001 -0.000000 -0.461474 3.841601 -39.722686 6.450762 5.820357 -95.892892 -0.000000 0.000000 -0.000003 0.469727 4.966829 -39.799447 8.181031 5.368626 -113.503004 -0.000002 0.000000 -0.000000 -3.762420 9.063693 -45.253821 5.342543 5.829020 -85.005304 -0.000002 0.000001 -0.000000 0.000000 -0.000000 0.000001 3.036127 13.027197 -5.371409 -48.713736 27.172818 83.457091 0.000437 105.988321 -0.000435 -8.345375 17.548083 8.775685 -7.341107 13.749663 7.412341 9.855782 -44.489096 -3.903273 0.000000 0.000001 0.000001 -0.124370 -2.384794 45.108864 4.500599 -4.654549 88.071164 -0.000001 0.000001 0.000004 -0.761625 -2.932914 39.031099 5.133898 -4.632762 95.881690 0.000002 -0.000002 0.000003 0.154760 -4.068809 39.122668 6.509727 -4.273606 113.462870 -0.000000 0.000001 0.000001 -4.198877 -8.025514 44.637793 4.252924 -4.639645 85.014818 0.000000 0.000000 -0.000001 0.000000 -0.000002 -0.000001 0.000000 -0.000001 0.000000 0.000000 -0.000001 0.000000 0.000000 -0.000001 0.000000 0.000000 -0.000001 0.000000 0.000000 -0.000001 0.000000 0.000000 0.000001 0.000000 0.000000 -0.000001 0.000000 0.000000 -0.000001 0.000000 0.000000 0.000001 0.000000 -0.000000 -0.000001 0.000000 -0.000000 -0.000001 0.000000 -0.000000 -0.000003 -0.000000 
-0.291395 70.516579 -0.115428 -5.394655 -45.367769 -0.059407 0.000000 -0.000001 -0.000000 -33.371560 7.313640 17.612630 59.896490 -6.428298 4.370666 -22.867521 -7.945438 -14.741498 -0.000000 -0.000000 -0.000000 -0.000000 -0.000000 0.000000 -0.000002 -0.000003 0.000000 -25.450820 -10.532218 -28.233372 58.841499 -8.754267 -7.800399 -25.578575 -6.328816 22.090754 -0.000000 0.000001 0.000000 -0.000000 0.000001 0.000000 0.000001 0.000001 -0.000003 9.478784 7.273312 -1.577148 2.190248 1.012036 -0.889779 2.204671 1.005821 -0.868759 0.085771 13.245573 4.386414 8.800626 20.230044 -4.209236 0.000000 -0.000000 -0.000001 0.000000 -0.000000 -0.000001 0.000000 -0.000000 -0.000001 1.115725 3.626834 -8.693359 -53.153652 4.985194 -51.684349 0.000156 -106.535255 0.000149 2.135048 -7.826418 -15.735521 -6.141202 -11.690800 -6.761671 9.914153 42.595501 3.409830 -0.000001 0.000001 -0.000003 0.255323 3.378238 -45.814327 5.654092 5.847764 -88.067462 -0.000004 0.000001 -0.000002 -0.461473 3.841603 -39.722679 6.450761 5.820353 -95.892892 -0.000002 0.000001 -0.000001 0.469729 4.966828 -39.799444 8.181032 5.368626 -113.502998 -0.000000 0.000000 0.000001 -3.762416 9.063696 -45.253818 5.342543 5.829016 -85.005311 -0.000000 -0.000005 0.000003 0.000000 -0.000002 -0.000000 3.033765 13.290781 -5.488888 -48.445569 26.967612 82.836439 -0.000060 106.217276 0.000047 -8.837556 17.355379 8.303440 -7.341109 13.749667 7.412342 9.855782 -44.489096 -3.903285 0.000000 0.000001 0.000001 -0.124371 -2.384794 45.108864 4.500600 -4.654549 88.071164 -0.000000 0.000002 0.000006 -0.761626 -2.932913 39.031096 5.133901 -4.632762 95.881683 0.000001 -0.000002 0.000001 0.154760 -4.068808 39.122661 6.509722 -4.273608 113.462870 -0.000001 -0.000002 0.000002 -4.198878 -8.025513 44.637786 4.252929 -4.639646 85.014818 -0.000002 -0.000001 -0.000000 -0.000002 -0.000002 0.000002 0.000000 -0.000001 0.000000 0.000000 -0.000001 0.000000 0.000000 -0.000001 0.000000 0.000000 -0.000001 0.000000 0.000000 -0.000001 0.000000 0.000000 0.000002 -0.000001 0.000000 -0.000001 0.000000 0.000000 -0.000001 0.000000 0.000000 0.000002 -0.000001 0.000000 -0.000001 0.000000 0.000000 -0.000001 0.000000 0.000000 -0.000001 -0.000000 
-0.287695 70.415466 -0.315452 -5.526139 -45.657848 -0.159830 -0.000000 -0.000001 0.000001 -33.894291 7.003198 17.731347 60.649307 -6.222785 4.419555 -21.961473 -7.923424 -14.844928 -0.000000 -0.000001 0.000000 -0.000000 -0.000001 0.000000 0.000001 0.000003 -0.000001 -25.883420 -10.550192 -28.205533 59.300870 -8.353744 -7.977236 -25.794059 -6.321266 22.040052 -0.000000 0.000001 0.000000 -0.000000 0.000001 0.000000 -0.000000 -0.000000 -0.000001 9.512760 7.337277 -1.426936 2.197573 1.027108 -0.862104 2.211432 1.021839 -0.841508 0.080985 13.269758 4.242636 8.681404 20.313042 -4.292199 0.000000 -0.000000 -0.000001 0.000000 -0.000000 -0.000001 0.000000 -0.000000 -0.000001 1.116596 3.696293 -8.750942 -52.843039 5.031859 -51.853447 0.000273 -106.672371 0.000247 2.300296 -7.951172 -15.637944 -6.141206 -11.690801 -6.761664 9.914160 42.595501 3.409829 -0.000003 -0.000000 -0.000001 0.255322 3.378235 -45.814331 5.654091 5.847766 -88.067462 0.000001 0.000001 -0.000005 -0.461473 3.841604 -39.722679 6.450761 5.820353 -95.892892 -0.000002 0.000002 0.000000 0.469730 4.966829 -39.799451 8.181032 5.368625 -113.502998 0.000000 0.000000 -0.000002 -3.762417 9.063693 -45.253814 5.342546 5.829020 -85.005304 -0.000000 0.000001 -0.000000 -0.000000 0.000002 0.000001 3.025580 13.532520 -5.623950 -48.207769 26.760167 82.252997 0.000060 106.474248 -0.000054 -9.184496 17.196943 7.719687 -7.341108 13.749665 7.412340 9.855782 -44.489093 -3.903275 0.000000 0.000001 0.000000 -0.124371 -2.384793 45.108868 4.500599 -4.654549 88.071171 -0.000000 0.000003 0.000000 -0.761625 -2.932916 39.031102 5.133901 -4.632762 95.881683 0.000000 -0.000000 0.000002 0.154759 -4.068810 39.122661 6.509726 -4.273608 113.462877 -0.000001 -0.000005 0.000001 -4.198879 -8.025514 44.637789 4.252924 -4.639647 85.014811 -0.000002 0.000002 0.000001 -0.000001 0.000004 -0.000003 -0.000000 -0.000000 0.000000 -0.000000 -0.000000 0.000000 -0.000000 -0.000000 0.000000 -0.000000 -0.000000 0.000000 -0.000000 -0.000000 -0.000000 -0.000000 -0.000000 -0.000000 -0.000000 -0.000000 0.000000 -0.000000 -0.000000 -0.000000 -0.000000 -0.000000 -0.000000 0.000000 0.000002 -0.000000 0.000000 0.000002 -0.000000 -0.000000 -0.000001 0.000001 
-0.260604 70.306931 -0.479744 -5.686167 -45.964578 -0.289337 -0.000000 0.000002 -0.000000 -34.428573 6.683020 17.828401 61.505232 -6.018332 4.454777 -21.018584 -7.913859 -14.895852 -0.000000 0.000002 0.000000 -0.000000 0.000002 -0.000000 -0.000001 0.000003 -0.000001 -26.326197 -10.585680 -28.196665 59.766320 -7.916419 -8.190908 -26.002827 -6.306037 21.938815 -0.000000 0.000001 0.000001 -0.000000 0.000001 0.000001 -0.000003 0.000000 -0.000000 9.562060 7.374259 -1.273083 2.208616 1.035252 -0.834414 2.222026 1.030872 -0.814189 0.077829 13.290483 4.114899 8.569952 20.386131 -4.382674 0.000000 0.000000 0.000000 0.000000 0.000000 0.000000 0.000000 0.000000 0.000000 1.119849 3.753402 -8.805219 -52.554802 5.073440 -52.013099 0.000001 -106.767571 0.000011 2.477039 -8.092272 -15.589488 -6.141202 -11.690803 -6.761661 9.914152 42.595501 3.409827 -0.000000 0.000001 -0.000002 0.255321 3.378235 -45.814327 5.654091 5.847765 -88.067455 -0.000001 -0.000001 -0.000002 -0.461474 3.841603 -39.722676 6.450761 5.820354 -95.892892 -0.000003 0.000001 -0.000003 0.469729 4.966826 -39.799444 8.181030 5.368628 -113.502998 0.000002 0.000001 -0.000002 -3.762415 9.063693 -45.253818 5.342545 5.829019 -85.005311 0.000003 -0.000002 -0.000001 0.000000 -0.000002 -0.000001 3.012409 13.754818 -5.753861 -47.992348 26.566313 81.688878 -0.000220 106.756239 0.000193 -9.402013 17.062733 7.024375 -7.341107 13.749665 7.412339 9.855788 -44.489093 -3.903277 0.000002 0.000001 0.000001 -0.124371 -2.384794 45.108864 4.500598 -4.654549 88.071164 -0.000002 -0.000002 0.000005 -0.761626 -2.932914 39.031092 5.133897 -4.632762 95.881683 0.000001 0.000001 -0.000000 0.154758 -4.068810 39.122668 6.509723 -4.273607 113.462870 0.000000 0.000001 0.000001 -4.198876 -8.025512 44.637786 4.252927 -4.639643 85.014811 0.000003 0.000001 -0.000001 0.000001 -0.000001 -0.000000 0.000000 0.000002 -0.000000 0.000000 0.000002 -0.000000 0.000000 0.000002 -0.000000 0.000000 0.000002 -0.000000 0.000000 0.000002 -0.000000 0.000001 0.000002 -0.000000 0.000000 0.000002 -0.000000 0.000000 0.000002 -0.000000 0.000001 0.000002 -0.000000 0.000000 0.000001 -0.000000 0.000000 0.000001 -0.000000 -0.000000 0.000002 -0.000000 
